<?xml version="1.0" encoding="UTF-8" standalone="no"?>
<!DOCTYPE svg PUBLIC "-//W3C//DTD SVG 1.1//EN"
 "http://www.w3.org/Graphics/SVG/1.1/DTD/svg11.dtd">
<!-- Generated by graphviz version 2.43.0 (0)
 -->
<!-- Title: pastafarianism Pages: 1 -->
<svg width="1542pt" height="482pt"
 viewBox="0.00 0.00 1542.08 481.65" xmlns="http://www.w3.org/2000/svg" xmlns:xlink="http://www.w3.org/1999/xlink">
<g id="graph0" class="graph" transform="scale(1 1) rotate(0) translate(4 477.65)">
<title>pastafarianism</title>
<polygon fill="white" stroke="transparent" points="-4,4 -4,-477.65 1538.08,-477.65 1538.08,4 -4,4"/>
<!-- node_df761d85_c32d_462d_bab5_13407da78142 -->
<g id="node1" class="node">
<title>node_df761d85_c32d_462d_bab5_13407da78142</title>
<path fill="#b2ebf2" stroke="black" stroke-width="1.4" d="M756.9,-473.65C756.9,-473.65 622.9,-473.65 622.9,-473.65 616.9,-473.65 610.9,-467.65 610.9,-461.65 610.9,-461.65 610.9,-449.65 610.9,-449.65 610.9,-443.65 616.9,-437.65 622.9,-437.65 622.9,-437.65 756.9,-437.65 756.9,-437.65 762.9,-437.65 768.9,-443.65 768.9,-449.65 768.9,-449.65 768.9,-461.65 768.9,-461.65 768.9,-467.65 762.9,-473.65 756.9,-473.65"/>
<text text-anchor="middle" x="689.9" y="-459.65" font-family="Helvetica,sans-Serif" font-weight="bold" font-size="12.50">? goal_guarded_root</text>
<text text-anchor="middle" x="689.9" y="-445.65" font-family="Helvetica,sans-Serif" font-weight="bold" font-size="12.50">(Selector)</text>
</g>
<!-- node_592b5578_9e21_419b_ba97_93e4533b63b6 -->
<g id="node2" class="node">
<title>node_592b5578_9e21_419b_ba97_93e4533b63b6</title>
<ellipse fill="#c8e6c9" stroke="black" stroke-width="1.4" cx="609.9" cy="-385.19" rx="88.28" ry="25.41"/>
<text text-anchor="middle" x="609.9" y="-389.19" font-family="Helvetica,sans-Serif" font-weight="bold" font-size="12.50" fill="#1b5e20">GoalCheck_Pre</text>
<text text-anchor="middle" x="609.9" y="-375.19" font-family="Helvetica,sans-Serif" font-weight="bold" font-size="12.50" fill="#1b5e20">[Pre&#45;Condition]</text>
</g>
<!-- node_df761d85_c32d_462d_bab5_13407da78142&#45;&gt;node_592b5578_9e21_419b_ba97_93e4533b63b6 -->
<g id="edge1" class="edge">
<title>node_df761d85_c32d_462d_bab5_13407da78142&#45;&gt;node_592b5578_9e21_419b_ba97_93e4533b63b6</title>
<path fill="none" stroke="black" stroke-width="1.4" d="M669.72,-437.37C661.67,-430.48 652.18,-422.37 643.17,-414.66"/>
<polygon fill="black" stroke="black" stroke-width="1.4" points="644.74,-412.55 637.34,-409.67 641.33,-416.54 644.74,-412.55"/>
</g>
<!-- node_37caa7af_a94d_40b7_b96a_9aaa602c0ba3 -->
<g id="node3" class="node">
<title>node_37caa7af_a94d_40b7_b96a_9aaa602c0ba3</title>
<path fill="#e1bee7" stroke="black" stroke-width="1.4" d="M821.9,-403.19C821.9,-403.19 719.9,-403.19 719.9,-403.19 713.9,-403.19 707.9,-397.19 707.9,-391.19 707.9,-391.19 707.9,-379.19 707.9,-379.19 707.9,-373.19 713.9,-367.19 719.9,-367.19 719.9,-367.19 821.9,-367.19 821.9,-367.19 827.9,-367.19 833.9,-373.19 833.9,-379.19 833.9,-379.19 833.9,-391.19 833.9,-391.19 833.9,-397.19 827.9,-403.19 821.9,-403.19"/>
<text text-anchor="middle" x="770.9" y="-389.19" font-family="Helvetica,sans-Serif" font-weight="bold" font-size="12.50" fill="#4a148c">retry_until_goal</text>
<text text-anchor="middle" x="770.9" y="-375.19" font-family="Helvetica,sans-Serif" font-weight="bold" font-size="12.50" fill="#4a148c">[Retry &lt;= 10]</text>
</g>
<!-- node_df761d85_c32d_462d_bab5_13407da78142&#45;&gt;node_37caa7af_a94d_40b7_b96a_9aaa602c0ba3 -->
<g id="edge2" class="edge">
<title>node_df761d85_c32d_462d_bab5_13407da78142&#45;&gt;node_37caa7af_a94d_40b7_b96a_9aaa602c0ba3</title>
<path fill="none" stroke="black" stroke-width="1.4" d="M710.34,-437.37C720.78,-428.55 733.6,-417.72 744.75,-408.29"/>
<polygon fill="black" stroke="black" stroke-width="1.4" points="746.72,-410.07 750.75,-403.22 743.33,-406.06 746.72,-410.07"/>
</g>
<!-- node_adaabc93_b760_4c7e_a5c9_db29337e67a0 -->
<g id="node4" class="node">
<title>node_adaabc93_b760_4c7e_a5c9_db29337e67a0</title>
<path fill="#ffe0b2" stroke="black" stroke-width="1.4" d="M807.4,-332.74C807.4,-332.74 734.4,-332.74 734.4,-332.74 728.4,-332.74 722.4,-326.74 722.4,-320.74 722.4,-320.74 722.4,-308.74 722.4,-308.74 722.4,-302.74 728.4,-296.74 734.4,-296.74 734.4,-296.74 807.4,-296.74 807.4,-296.74 813.4,-296.74 819.4,-302.74 819.4,-308.74 819.4,-308.74 819.4,-320.74 819.4,-320.74 819.4,-326.74 813.4,-332.74 807.4,-332.74"/>
<text text-anchor="middle" x="770.9" y="-318.74" font-family="Helvetica,sans-Serif" font-weight="bold" font-size="12.50">&#45;&gt; attempt</text>
<text text-anchor="middle" x="770.9" y="-304.74" font-family="Helvetica,sans-Serif" font-weight="bold" font-size="12.50">(Sequence)</text>
</g>
<!-- node_37caa7af_a94d_40b7_b96a_9aaa602c0ba3&#45;&gt;node_adaabc93_b760_4c7e_a5c9_db29337e67a0 -->
<g id="edge3" class="edge">
<title>node_37caa7af_a94d_40b7_b96a_9aaa602c0ba3&#45;&gt;node_adaabc93_b760_4c7e_a5c9_db29337e67a0</title>
<path fill="none" stroke="black" stroke-width="1.4" d="M770.9,-366.92C770.9,-358.91 770.9,-349.25 770.9,-340.49"/>
<polygon fill="black" stroke="black" stroke-width="1.4" points="773.53,-340.27 770.9,-332.77 768.28,-340.27 773.53,-340.27"/>
</g>
<!-- node_523d3097_ecdd_4554_8069_8456ca078c87 -->
<g id="node5" class="node">
<title>node_523d3097_ecdd_4554_8069_8456ca078c87</title>
<path fill="#ffcc80" stroke="black" stroke-width="1.4" d="M751.9,-262.28C751.9,-262.28 597.9,-262.28 597.9,-262.28 591.9,-262.28 585.9,-256.28 585.9,-250.28 585.9,-250.28 585.9,-238.28 585.9,-238.28 585.9,-232.28 591.9,-226.28 597.9,-226.28 597.9,-226.28 751.9,-226.28 751.9,-226.28 757.9,-226.28 763.9,-232.28 763.9,-238.28 763.9,-238.28 763.9,-250.28 763.9,-250.28 763.9,-256.28 757.9,-262.28 751.9,-262.28"/>
<text text-anchor="middle" x="674.9" y="-248.28" font-family="Helvetica,sans-Serif" font-weight="bold" font-size="12.50">&#45;&gt; pddl_plan_sequence</text>
<text text-anchor="middle" x="674.9" y="-234.28" font-family="Helvetica,sans-Serif" font-weight="bold" font-size="12.50">(Sequence Memory)</text>
</g>
<!-- node_adaabc93_b760_4c7e_a5c9_db29337e67a0&#45;&gt;node_523d3097_ecdd_4554_8069_8456ca078c87 -->
<g id="edge4" class="edge">
<title>node_adaabc93_b760_4c7e_a5c9_db29337e67a0&#45;&gt;node_523d3097_ecdd_4554_8069_8456ca078c87</title>
<path fill="none" stroke="black" stroke-width="1.4" d="M746.68,-296.46C734.08,-287.47 718.55,-276.4 705.16,-266.86"/>
<polygon fill="black" stroke="black" stroke-width="1.4" points="706.42,-264.53 698.79,-262.31 703.37,-268.8 706.42,-264.53"/>
</g>
<!-- node_0224783e_5ca8_418b_ade4_1c9f9e6f3435 -->
<g id="node6" class="node">
<title>node_0224783e_5ca8_418b_ade4_1c9f9e6f3435</title>
<ellipse fill="#c8e6c9" stroke="black" stroke-width="1.4" cx="866.9" cy="-244.28" rx="93.18" ry="25.41"/>
<text text-anchor="middle" x="866.9" y="-248.28" font-family="Helvetica,sans-Serif" font-weight="bold" font-size="12.50" fill="#1b5e20">GoalCheck_Post</text>
<text text-anchor="middle" x="866.9" y="-234.28" font-family="Helvetica,sans-Serif" font-weight="bold" font-size="12.50" fill="#1b5e20">[Post&#45;Condition]</text>
</g>
<!-- node_adaabc93_b760_4c7e_a5c9_db29337e67a0&#45;&gt;node_0224783e_5ca8_418b_ade4_1c9f9e6f3435 -->
<g id="edge5" class="edge">
<title>node_adaabc93_b760_4c7e_a5c9_db29337e67a0&#45;&gt;node_0224783e_5ca8_418b_ade4_1c9f9e6f3435</title>
<path fill="none" stroke="black" stroke-width="1.4" d="M795.13,-296.46C805.25,-289.24 817.26,-280.68 828.53,-272.64"/>
<polygon fill="black" stroke="black" stroke-width="1.4" points="830.12,-274.73 834.7,-268.24 827.07,-270.46 830.12,-274.73"/>
</g>
<!-- node_ec8e5fe2_5a26_4ad2_85df_362dcb15bfa7 -->
<g id="node7" class="node">
<title>node_ec8e5fe2_5a26_4ad2_85df_362dcb15bfa7</title>
<path fill="#ffe0b2" stroke="black" stroke-width="1.4" d="M220.4,-191.82C220.4,-191.82 131.4,-191.82 131.4,-191.82 125.4,-191.82 119.4,-185.82 119.4,-179.82 119.4,-179.82 119.4,-167.82 119.4,-167.82 119.4,-161.82 125.4,-155.82 131.4,-155.82 131.4,-155.82 220.4,-155.82 220.4,-155.82 226.4,-155.82 232.4,-161.82 232.4,-167.82 232.4,-167.82 232.4,-179.82 232.4,-179.82 232.4,-185.82 226.4,-191.82 220.4,-191.82"/>
<text text-anchor="middle" x="175.9" y="-177.82" font-family="Helvetica,sans-Serif" font-weight="bold" font-size="12.50">&#45;&gt; PickSeq</text>
<text text-anchor="middle" x="175.9" y="-163.82" font-family="Helvetica,sans-Serif" font-weight="bold" font-size="12.50">(yellow_cube)</text>
</g>
<!-- node_523d3097_ecdd_4554_8069_8456ca078c87&#45;&gt;node_ec8e5fe2_5a26_4ad2_85df_362dcb15bfa7 -->
<g id="edge6" class="edge">
<title>node_523d3097_ecdd_4554_8069_8456ca078c87&#45;&gt;node_ec8e5fe2_5a26_4ad2_85df_362dcb15bfa7</title>
<path fill="none" stroke="black" stroke-width="1.4" d="M585.69,-231.04C486.27,-217.4 327.96,-195.68 240.05,-183.62"/>
<polygon fill="black" stroke="black" stroke-width="1.4" points="240.33,-181.01 232.54,-182.59 239.62,-186.21 240.33,-181.01"/>
</g>
<!-- node_d55b5cfe_0932_4bd0_a80e_e93c5d4ba681 -->
<g id="node8" class="node">
<title>node_d55b5cfe_0932_4bd0_a80e_e93c5d4ba681</title>
<path fill="#ffe0b2" stroke="black" stroke-width="1.4" d="M504.4,-191.82C504.4,-191.82 367.4,-191.82 367.4,-191.82 361.4,-191.82 355.4,-185.82 355.4,-179.82 355.4,-179.82 355.4,-167.82 355.4,-167.82 355.4,-161.82 361.4,-155.82 367.4,-155.82 367.4,-155.82 504.4,-155.82 504.4,-155.82 510.4,-155.82 516.4,-161.82 516.4,-167.82 516.4,-167.82 516.4,-179.82 516.4,-179.82 516.4,-185.82 510.4,-191.82 504.4,-191.82"/>
<text text-anchor="middle" x="435.9" y="-177.82" font-family="Helvetica,sans-Serif" font-weight="bold" font-size="12.50">&#45;&gt; PlaceSeq</text>
<text text-anchor="middle" x="435.9" y="-163.82" font-family="Helvetica,sans-Serif" font-weight="bold" font-size="12.50">(yellow_cube &#45;&gt; pot)</text>
</g>
<!-- node_523d3097_ecdd_4554_8069_8456ca078c87&#45;&gt;node_d55b5cfe_0932_4bd0_a80e_e93c5d4ba681 -->
<g id="edge7" class="edge">
<title>node_523d3097_ecdd_4554_8069_8456ca078c87&#45;&gt;node_d55b5cfe_0932_4bd0_a80e_e93c5d4ba681</title>
<path fill="none" stroke="black" stroke-width="1.4" d="M615.52,-226.27C581.31,-216.47 538.23,-204.13 502.83,-193.99"/>
<polygon fill="black" stroke="black" stroke-width="1.4" points="503.33,-191.41 495.4,-191.86 501.88,-196.45 503.33,-191.41"/>
</g>
<!-- node_62cd54c8_dff9_4697_bc49_9b975bb57cf2 -->
<g id="node9" class="node">
<title>node_62cd54c8_dff9_4697_bc49_9b975bb57cf2</title>
<path fill="#ffe0b2" stroke="black" stroke-width="1.4" d="M634.9,-191.82C634.9,-191.82 566.9,-191.82 566.9,-191.82 560.9,-191.82 554.9,-185.82 554.9,-179.82 554.9,-179.82 554.9,-167.82 554.9,-167.82 554.9,-161.82 560.9,-155.82 566.9,-155.82 566.9,-155.82 634.9,-155.82 634.9,-155.82 640.9,-155.82 646.9,-161.82 646.9,-167.82 646.9,-167.82 646.9,-179.82 646.9,-179.82 646.9,-185.82 640.9,-191.82 634.9,-191.82"/>
<text text-anchor="middle" x="600.9" y="-177.82" font-family="Helvetica,sans-Serif" font-weight="bold" font-size="12.50">&#45;&gt; PickSeq</text>
<text text-anchor="middle" x="600.9" y="-163.82" font-family="Helvetica,sans-Serif" font-weight="bold" font-size="12.50">(red_can)</text>
</g>
<!-- node_523d3097_ecdd_4554_8069_8456ca078c87&#45;&gt;node_62cd54c8_dff9_4697_bc49_9b975bb57cf2 -->
<g id="edge8" class="edge">
<title>node_523d3097_ecdd_4554_8069_8456ca078c87&#45;&gt;node_62cd54c8_dff9_4697_bc49_9b975bb57cf2</title>
<path fill="none" stroke="black" stroke-width="1.4" d="M656.23,-226C646.78,-217.26 635.2,-206.55 625.08,-197.19"/>
<polygon fill="black" stroke="black" stroke-width="1.4" points="626.6,-195.02 619.31,-191.86 623.04,-198.88 626.6,-195.02"/>
</g>
<!-- node_4646ff35_5db9_45cd_8c4a_ac0677a89d7d -->
<g id="node10" class="node">
<title>node_4646ff35_5db9_45cd_8c4a_ac0677a89d7d</title>
<path fill="#ffe0b2" stroke="black" stroke-width="1.4" d="M830.9,-191.82C830.9,-191.82 668.9,-191.82 668.9,-191.82 662.9,-191.82 656.9,-185.82 656.9,-179.82 656.9,-179.82 656.9,-167.82 656.9,-167.82 656.9,-161.82 662.9,-155.82 668.9,-155.82 668.9,-155.82 830.9,-155.82 830.9,-155.82 836.9,-155.82 842.9,-161.82 842.9,-167.82 842.9,-167.82 842.9,-179.82 842.9,-179.82 842.9,-185.82 836.9,-191.82 830.9,-191.82"/>
<text text-anchor="middle" x="749.9" y="-177.82" font-family="Helvetica,sans-Serif" font-weight="bold" font-size="12.50">&#45;&gt; PlaceSeq</text>
<text text-anchor="middle" x="749.9" y="-163.82" font-family="Helvetica,sans-Serif" font-weight="bold" font-size="12.50">(red_can &#45;&gt; sorting_bin)</text>
</g>
<!-- node_523d3097_ecdd_4554_8069_8456ca078c87&#45;&gt;node_4646ff35_5db9_45cd_8c4a_ac0677a89d7d -->
<g id="edge9" class="edge">
<title>node_523d3097_ecdd_4554_8069_8456ca078c87&#45;&gt;node_4646ff35_5db9_45cd_8c4a_ac0677a89d7d</title>
<path fill="none" stroke="black" stroke-width="1.4" d="M693.83,-226C703.49,-217.18 715.36,-206.35 725.69,-196.92"/>
<polygon fill="black" stroke="black" stroke-width="1.4" points="727.47,-198.85 731.24,-191.86 723.93,-194.97 727.47,-198.85"/>
</g>
<!-- node_fbb35978_3562_49e5_9ac2_c46f300a9d19 -->
<g id="node11" class="node">
<title>node_fbb35978_3562_49e5_9ac2_c46f300a9d19</title>
<path fill="#ffe0b2" stroke="black" stroke-width="1.4" d="M1033.9,-191.82C1033.9,-191.82 965.9,-191.82 965.9,-191.82 959.9,-191.82 953.9,-185.82 953.9,-179.82 953.9,-179.82 953.9,-167.82 953.9,-167.82 953.9,-161.82 959.9,-155.82 965.9,-155.82 965.9,-155.82 1033.9,-155.82 1033.9,-155.82 1039.9,-155.82 1045.9,-161.82 1045.9,-167.82 1045.9,-167.82 1045.9,-179.82 1045.9,-179.82 1045.9,-185.82 1039.9,-191.82 1033.9,-191.82"/>
<text text-anchor="middle" x="999.9" y="-177.82" font-family="Helvetica,sans-Serif" font-weight="bold" font-size="12.50">&#45;&gt; PickSeq</text>
<text text-anchor="middle" x="999.9" y="-163.82" font-family="Helvetica,sans-Serif" font-weight="bold" font-size="12.50">(blue_can)</text>
</g>
<!-- node_523d3097_ecdd_4554_8069_8456ca078c87&#45;&gt;node_fbb35978_3562_49e5_9ac2_c46f300a9d19 -->
<g id="edge10" class="edge">
<title>node_523d3097_ecdd_4554_8069_8456ca078c87&#45;&gt;node_fbb35978_3562_49e5_9ac2_c46f300a9d19</title>
<path fill="none" stroke="black" stroke-width="1.4" d="M737.97,-226.26C748.28,-223.65 758.87,-221.08 768.9,-218.82 829.27,-205.24 899.12,-192.32 946.08,-184.03"/>
<polygon fill="black" stroke="black" stroke-width="1.4" points="946.77,-186.58 953.7,-182.69 945.86,-181.41 946.77,-186.58"/>
</g>
<!-- node_6a9abb87_bdf7_4470_b977_1b1bfa31fa45 -->
<g id="node12" class="node">
<title>node_6a9abb87_bdf7_4470_b977_1b1bfa31fa45</title>
<path fill="#ffe0b2" stroke="black" stroke-width="1.4" d="M1328.9,-191.82C1328.9,-191.82 1158.9,-191.82 1158.9,-191.82 1152.9,-191.82 1146.9,-185.82 1146.9,-179.82 1146.9,-179.82 1146.9,-167.82 1146.9,-167.82 1146.9,-161.82 1152.9,-155.82 1158.9,-155.82 1158.9,-155.82 1328.9,-155.82 1328.9,-155.82 1334.9,-155.82 1340.9,-161.82 1340.9,-167.82 1340.9,-167.82 1340.9,-179.82 1340.9,-179.82 1340.9,-185.82 1334.9,-191.82 1328.9,-191.82"/>
<text text-anchor="middle" x="1243.9" y="-177.82" font-family="Helvetica,sans-Serif" font-weight="bold" font-size="12.50">&#45;&gt; PlaceSeq</text>
<text text-anchor="middle" x="1243.9" y="-163.82" font-family="Helvetica,sans-Serif" font-weight="bold" font-size="12.50">(blue_can &#45;&gt; sorting_bin)</text>
</g>
<!-- node_523d3097_ecdd_4554_8069_8456ca078c87&#45;&gt;node_6a9abb87_bdf7_4470_b977_1b1bfa31fa45 -->
<g id="edge11" class="edge">
<title>node_523d3097_ecdd_4554_8069_8456ca078c87&#45;&gt;node_6a9abb87_bdf7_4470_b977_1b1bfa31fa45</title>
<path fill="none" stroke="black" stroke-width="1.4" d="M734.51,-226.22C745.86,-223.42 757.69,-220.79 768.9,-218.82 786.85,-215.68 1004.75,-196.05 1139.1,-184.1"/>
<polygon fill="black" stroke="black" stroke-width="1.4" points="1139.39,-186.71 1146.63,-183.43 1138.92,-181.48 1139.39,-186.71"/>
</g>
<!-- node_227fab75_4abd_4c01_8151_907a33a0b3f1 -->
<g id="node13" class="node">
<title>node_227fab75_4abd_4c01_8151_907a33a0b3f1</title>
<ellipse fill="#eeeeee" stroke="black" stroke-width="1.4" cx="79.9" cy="-103.37" rx="79.81" ry="25.41"/>
<text text-anchor="middle" x="79.9" y="-107.37" font-family="Helvetica,sans-Serif" font-weight="bold" font-size="12.50">PickUp</text>
<text text-anchor="middle" x="79.9" y="-93.37" font-family="Helvetica,sans-Serif" font-weight="bold" font-size="12.50">(yellow_cube)</text>
</g>
<!-- node_ec8e5fe2_5a26_4ad2_85df_362dcb15bfa7&#45;&gt;node_227fab75_4abd_4c01_8151_907a33a0b3f1 -->
<g id="edge12" class="edge">
<title>node_ec8e5fe2_5a26_4ad2_85df_362dcb15bfa7&#45;&gt;node_227fab75_4abd_4c01_8151_907a33a0b3f1</title>
<path fill="none" stroke="black" stroke-width="1.4" d="M151.68,-155.55C141.37,-148.2 129.1,-139.45 117.65,-131.28"/>
<polygon fill="black" stroke="black" stroke-width="1.4" points="119.02,-129.04 111.39,-126.82 115.97,-133.31 119.02,-129.04"/>
</g>
<!-- node_c5a24bdf_7996_4672_824a_f1c26296e993 -->
<g id="node14" class="node">
<title>node_c5a24bdf_7996_4672_824a_f1c26296e993</title>
<ellipse fill="#c8e6c9" stroke="black" stroke-width="1.4" cx="175.9" cy="-25.46" rx="79.81" ry="25.41"/>
<text text-anchor="middle" x="175.9" y="-29.46" font-family="Helvetica,sans-Serif" font-weight="bold" font-size="12.50" fill="#1b5e20">Holding</text>
<text text-anchor="middle" x="175.9" y="-15.46" font-family="Helvetica,sans-Serif" font-weight="bold" font-size="12.50" fill="#1b5e20">(yellow_cube)</text>
</g>
<!-- node_ec8e5fe2_5a26_4ad2_85df_362dcb15bfa7&#45;&gt;node_c5a24bdf_7996_4672_824a_f1c26296e993 -->
<g id="edge13" class="edge">
<title>node_ec8e5fe2_5a26_4ad2_85df_362dcb15bfa7&#45;&gt;node_c5a24bdf_7996_4672_824a_f1c26296e993</title>
<path fill="none" stroke="black" stroke-width="1.4" d="M175.9,-155.75C175.9,-132 175.9,-88.57 175.9,-58.64"/>
<polygon fill="black" stroke="black" stroke-width="1.4" points="178.53,-58.46 175.9,-50.96 173.28,-58.46 178.53,-58.46"/>
</g>
<!-- node_6f7f73b5_6518_4d24_8ac8_685fb9a8de62 -->
<g id="node15" class="node">
<title>node_6f7f73b5_6518_4d24_8ac8_685fb9a8de62</title>
<ellipse fill="#eeeeee" stroke="black" stroke-width="1.4" cx="305.9" cy="-103.37" rx="113.69" ry="25.41"/>
<text text-anchor="middle" x="305.9" y="-107.37" font-family="Helvetica,sans-Serif" font-weight="bold" font-size="12.50">PlaceInBin</text>
<text text-anchor="middle" x="305.9" y="-93.37" font-family="Helvetica,sans-Serif" font-weight="bold" font-size="12.50">(yellow_cube &#45;&gt; pot)</text>
</g>
<!-- node_d55b5cfe_0932_4bd0_a80e_e93c5d4ba681&#45;&gt;node_6f7f73b5_6518_4d24_8ac8_685fb9a8de62 -->
<g id="edge14" class="edge">
<title>node_d55b5cfe_0932_4bd0_a80e_e93c5d4ba681&#45;&gt;node_6f7f73b5_6518_4d24_8ac8_685fb9a8de62</title>
<path fill="none" stroke="black" stroke-width="1.4" d="M403.43,-155.73C389.09,-148.17 371.89,-139.12 355.97,-130.73"/>
<polygon fill="black" stroke="black" stroke-width="1.4" points="357.09,-128.35 349.23,-127.18 354.64,-133 357.09,-128.35"/>
</g>
<!-- node_752adf48_afed_462f_bc54_2b1564a7b5e0 -->
<g id="node16" class="node">
<title>node_752adf48_afed_462f_bc54_2b1564a7b5e0</title>
<ellipse fill="#c8e6c9" stroke="black" stroke-width="1.4" cx="426.9" cy="-25.46" rx="113.69" ry="25.41"/>
<text text-anchor="middle" x="426.9" y="-29.46" font-family="Helvetica,sans-Serif" font-weight="bold" font-size="12.50" fill="#1b5e20">On</text>
<text text-anchor="middle" x="426.9" y="-15.46" font-family="Helvetica,sans-Serif" font-weight="bold" font-size="12.50" fill="#1b5e20">(yellow_cube &#45;&gt; pot)</text>
</g>
<!-- node_d55b5cfe_0932_4bd0_a80e_e93c5d4ba681&#45;&gt;node_752adf48_afed_462f_bc54_2b1564a7b5e0 -->
<g id="edge15" class="edge">
<title>node_d55b5cfe_0932_4bd0_a80e_e93c5d4ba681&#45;&gt;node_752adf48_afed_462f_bc54_2b1564a7b5e0</title>
<path fill="none" stroke="black" stroke-width="1.4" d="M434.85,-155.75C433.39,-132 430.72,-88.57 428.88,-58.64"/>
<polygon fill="black" stroke="black" stroke-width="1.4" points="431.49,-58.29 428.41,-50.96 426.25,-58.61 431.49,-58.29"/>
</g>
<!-- node_9b0be15d_82e1_48b5_ba53_54d6515689f7 -->
<g id="node17" class="node">
<title>node_9b0be15d_82e1_48b5_ba53_54d6515689f7</title>
<ellipse fill="#eeeeee" stroke="black" stroke-width="1.4" cx="526.9" cy="-103.37" rx="58.88" ry="25.41"/>
<text text-anchor="middle" x="526.9" y="-107.37" font-family="Helvetica,sans-Serif" font-weight="bold" font-size="12.50">PickUp</text>
<text text-anchor="middle" x="526.9" y="-93.37" font-family="Helvetica,sans-Serif" font-weight="bold" font-size="12.50">(red_can)</text>
</g>
<!-- node_62cd54c8_dff9_4697_bc49_9b975bb57cf2&#45;&gt;node_9b0be15d_82e1_48b5_ba53_54d6515689f7 -->
<g id="edge16" class="edge">
<title>node_62cd54c8_dff9_4697_bc49_9b975bb57cf2&#45;&gt;node_9b0be15d_82e1_48b5_ba53_54d6515689f7</title>
<path fill="none" stroke="black" stroke-width="1.4" d="M582.23,-155.55C574.58,-148.47 565.52,-140.09 556.98,-132.19"/>
<polygon fill="black" stroke="black" stroke-width="1.4" points="558.46,-129.98 551.17,-126.82 554.89,-133.84 558.46,-129.98"/>
</g>
<!-- node_7d588e80_fb05_4567_91e7_fe9e4b16c3f8 -->
<g id="node18" class="node">
<title>node_7d588e80_fb05_4567_91e7_fe9e4b16c3f8</title>
<ellipse fill="#c8e6c9" stroke="black" stroke-width="1.4" cx="609.9" cy="-25.46" rx="58.88" ry="25.41"/>
<text text-anchor="middle" x="609.9" y="-29.46" font-family="Helvetica,sans-Serif" font-weight="bold" font-size="12.50" fill="#1b5e20">Holding</text>
<text text-anchor="middle" x="609.9" y="-15.46" font-family="Helvetica,sans-Serif" font-weight="bold" font-size="12.50" fill="#1b5e20">(red_can)</text>
</g>
<!-- node_62cd54c8_dff9_4697_bc49_9b975bb57cf2&#45;&gt;node_7d588e80_fb05_4567_91e7_fe9e4b16c3f8 -->
<g id="edge17" class="edge">
<title>node_62cd54c8_dff9_4697_bc49_9b975bb57cf2&#45;&gt;node_7d588e80_fb05_4567_91e7_fe9e4b16c3f8</title>
<path fill="none" stroke="black" stroke-width="1.4" d="M601.95,-155.75C603.41,-132 606.08,-88.57 607.92,-58.64"/>
<polygon fill="black" stroke="black" stroke-width="1.4" points="610.56,-58.61 608.4,-50.96 605.32,-58.29 610.56,-58.61"/>
</g>
<!-- node_66109f90_49da_4550_b13c_56e511adb027 -->
<g id="node19" class="node">
<title>node_66109f90_49da_4550_b13c_56e511adb027</title>
<ellipse fill="#eeeeee" stroke="black" stroke-width="1.4" cx="749.9" cy="-103.37" rx="131.54" ry="25.41"/>
<text text-anchor="middle" x="749.9" y="-107.37" font-family="Helvetica,sans-Serif" font-weight="bold" font-size="12.50">PlaceInBin</text>
<text text-anchor="middle" x="749.9" y="-93.37" font-family="Helvetica,sans-Serif" font-weight="bold" font-size="12.50">(red_can &#45;&gt; sorting_bin)</text>
</g>
<!-- node_4646ff35_5db9_45cd_8c4a_ac0677a89d7d&#45;&gt;node_66109f90_49da_4550_b13c_56e511adb027 -->
<g id="edge18" class="edge">
<title>node_4646ff35_5db9_45cd_8c4a_ac0677a89d7d&#45;&gt;node_66109f90_49da_4550_b13c_56e511adb027</title>
<path fill="none" stroke="black" stroke-width="1.4" d="M749.9,-155.55C749.9,-149.74 749.9,-143.06 749.9,-136.49"/>
<polygon fill="black" stroke="black" stroke-width="1.4" points="752.53,-136.38 749.9,-128.88 747.28,-136.38 752.53,-136.38"/>
</g>
<!-- node_ee7d67c4_f380_4c55_89c9_6ab59e646ebf -->
<g id="node20" class="node">
<title>node_ee7d67c4_f380_4c55_89c9_6ab59e646ebf</title>
<ellipse fill="#c8e6c9" stroke="black" stroke-width="1.4" cx="891.9" cy="-25.46" rx="131.54" ry="25.41"/>
<text text-anchor="middle" x="891.9" y="-29.46" font-family="Helvetica,sans-Serif" font-weight="bold" font-size="12.50" fill="#1b5e20">On</text>
<text text-anchor="middle" x="891.9" y="-15.46" font-family="Helvetica,sans-Serif" font-weight="bold" font-size="12.50" fill="#1b5e20">(red_can &#45;&gt; sorting_bin)</text>
</g>
<!-- node_4646ff35_5db9_45cd_8c4a_ac0677a89d7d&#45;&gt;node_ee7d67c4_f380_4c55_89c9_6ab59e646ebf -->
<g id="edge19" class="edge">
<title>node_4646ff35_5db9_45cd_8c4a_ac0677a89d7d&#45;&gt;node_ee7d67c4_f380_4c55_89c9_6ab59e646ebf</title>
<path fill="none" stroke="black" stroke-width="1.4" d="M843.17,-159.56C860.11,-152.95 875.88,-143.19 886.9,-128.82 902.02,-109.12 902.14,-80.48 899.12,-58.5"/>
<polygon fill="black" stroke="black" stroke-width="1.4" points="901.71,-58.03 897.94,-51.03 896.52,-58.85 901.71,-58.03"/>
</g>
<!-- node_41a4605c_f895_4ad7_8dd7_be1a5e9e8e93 -->
<g id="node21" class="node">
<title>node_41a4605c_f895_4ad7_8dd7_be1a5e9e8e93</title>
<ellipse fill="#eeeeee" stroke="black" stroke-width="1.4" cx="999.9" cy="-103.37" rx="63.78" ry="25.41"/>
<text text-anchor="middle" x="999.9" y="-107.37" font-family="Helvetica,sans-Serif" font-weight="bold" font-size="12.50">PickUp</text>
<text text-anchor="middle" x="999.9" y="-93.37" font-family="Helvetica,sans-Serif" font-weight="bold" font-size="12.50">(blue_can)</text>
</g>
<!-- node_fbb35978_3562_49e5_9ac2_c46f300a9d19&#45;&gt;node_41a4605c_f895_4ad7_8dd7_be1a5e9e8e93 -->
<g id="edge20" class="edge">
<title>node_fbb35978_3562_49e5_9ac2_c46f300a9d19&#45;&gt;node_41a4605c_f895_4ad7_8dd7_be1a5e9e8e93</title>
<path fill="none" stroke="black" stroke-width="1.4" d="M999.9,-155.55C999.9,-149.74 999.9,-143.06 999.9,-136.49"/>
<polygon fill="black" stroke="black" stroke-width="1.4" points="1002.53,-136.38 999.9,-128.88 997.28,-136.38 1002.53,-136.38"/>
</g>
<!-- node_952eba21_1658_4a83_b8bd_df6c32e7161e -->
<g id="node22" class="node">
<title>node_952eba21_1658_4a83_b8bd_df6c32e7161e</title>
<ellipse fill="#c8e6c9" stroke="black" stroke-width="1.4" cx="1096.9" cy="-25.46" rx="63.78" ry="25.41"/>
<text text-anchor="middle" x="1096.9" y="-29.46" font-family="Helvetica,sans-Serif" font-weight="bold" font-size="12.50" fill="#1b5e20">Holding</text>
<text text-anchor="middle" x="1096.9" y="-15.46" font-family="Helvetica,sans-Serif" font-weight="bold" font-size="12.50" fill="#1b5e20">(blue_can)</text>
</g>
<!-- node_fbb35978_3562_49e5_9ac2_c46f300a9d19&#45;&gt;node_952eba21_1658_4a83_b8bd_df6c32e7161e -->
<g id="edge21" class="edge">
<title>node_fbb35978_3562_49e5_9ac2_c46f300a9d19&#45;&gt;node_952eba21_1658_4a83_b8bd_df6c32e7161e</title>
<path fill="none" stroke="black" stroke-width="1.4" d="M1037.59,-155.61C1049.09,-148.74 1060.81,-139.8 1068.9,-128.82 1083.99,-108.35 1090.95,-80.19 1094.16,-58.58"/>
<polygon fill="black" stroke="black" stroke-width="1.4" points="1096.79,-58.73 1095.18,-50.95 1091.58,-58.04 1096.79,-58.73"/>
</g>
<!-- node_d481f064_5fb1_4a02_a4b7_405f919629fc -->
<g id="node23" class="node">
<title>node_d481f064_5fb1_4a02_a4b7_405f919629fc</title>
<ellipse fill="#eeeeee" stroke="black" stroke-width="1.4" cx="1243.9" cy="-103.37" rx="137.36" ry="25.41"/>
<text text-anchor="middle" x="1243.9" y="-107.37" font-family="Helvetica,sans-Serif" font-weight="bold" font-size="12.50">PlaceInBin</text>
<text text-anchor="middle" x="1243.9" y="-93.37" font-family="Helvetica,sans-Serif" font-weight="bold" font-size="12.50">(blue_can &#45;&gt; sorting_bin)</text>
</g>
<!-- node_6a9abb87_bdf7_4470_b977_1b1bfa31fa45&#45;&gt;node_d481f064_5fb1_4a02_a4b7_405f919629fc -->
<g id="edge22" class="edge">
<title>node_6a9abb87_bdf7_4470_b977_1b1bfa31fa45&#45;&gt;node_d481f064_5fb1_4a02_a4b7_405f919629fc</title>
<path fill="none" stroke="black" stroke-width="1.4" d="M1243.9,-155.55C1243.9,-149.74 1243.9,-143.06 1243.9,-136.49"/>
<polygon fill="black" stroke="black" stroke-width="1.4" points="1246.53,-136.38 1243.9,-128.88 1241.28,-136.38 1246.53,-136.38"/>
</g>
<!-- node_8bb37a52_902d_4b00_bf0f_b1fbb9a591fa -->
<g id="node24" class="node">
<title>node_8bb37a52_902d_4b00_bf0f_b1fbb9a591fa</title>
<ellipse fill="#c8e6c9" stroke="black" stroke-width="1.4" cx="1396.9" cy="-25.46" rx="137.36" ry="25.41"/>
<text text-anchor="middle" x="1396.9" y="-29.46" font-family="Helvetica,sans-Serif" font-weight="bold" font-size="12.50" fill="#1b5e20">On</text>
<text text-anchor="middle" x="1396.9" y="-15.46" font-family="Helvetica,sans-Serif" font-weight="bold" font-size="12.50" fill="#1b5e20">(blue_can &#45;&gt; sorting_bin)</text>
</g>
<!-- node_6a9abb87_bdf7_4470_b977_1b1bfa31fa45&#45;&gt;node_8bb37a52_902d_4b00_bf0f_b1fbb9a591fa -->
<g id="edge23" class="edge">
<title>node_6a9abb87_bdf7_4470_b977_1b1bfa31fa45&#45;&gt;node_8bb37a52_902d_4b00_bf0f_b1fbb9a591fa</title>
<path fill="none" stroke="black" stroke-width="1.4" d="M1340.95,-159.27C1358.15,-152.66 1374.26,-142.97 1385.9,-128.82 1401.76,-109.57 1403.59,-80.88 1401.99,-58.78"/>
<polygon fill="black" stroke="black" stroke-width="1.4" points="1404.6,-58.48 1401.29,-51.26 1399.37,-58.97 1404.6,-58.48"/>
</g>
</g>
</svg>
